<svg xmlns="http://www.w3.org/2000/svg" width="375" viewBox="0 0 375 375" height="375" version="1.0"><defs><clipPath id="a"><path d="M 279 171 L 323.546875 171 L 323.546875 221 L 279 221 Z M 279 171"/></clipPath><clipPath id="b"><path d="M 51.296875 144 L 266 144 L 266 221.828125 L 51.296875 221.828125 Z M 51.296875 144"/></clipPath></defs><g clip-path="url(#a)"><path fill="#83CD29" d="M 301.761719 171.570312 C 301.097656 171.570312 300.453125 171.707031 299.882812 172.03125 L 281.832031 182.425781 C 280.664062 183.097656 279.953125 184.367188 279.953125 185.714844 L 279.953125 206.472656 C 279.953125 207.820312 280.664062 209.085938 281.832031 209.757812 L 286.546875 212.46875 C 288.835938 213.59375 289.683594 213.574219 290.722656 213.574219 C 294.117188 213.574219 296.050781 211.523438 296.050781 207.957031 L 296.050781 187.476562 C 296.050781 187.1875 295.800781 186.980469 295.515625 186.980469 L 293.253906 186.980469 C 292.964844 186.980469 292.71875 187.191406 292.71875 187.476562 L 292.71875 207.964844 C 292.71875 209.546875 291.066406 211.136719 288.386719 209.800781 L 283.488281 206.933594 C 283.3125 206.839844 283.179688 206.667969 283.179688 206.476562 L 283.179688 185.71875 C 283.179688 185.523438 283.3125 185.320312 283.488281 185.222656 L 301.5 174.863281 C 301.667969 174.765625 301.867188 174.765625 302.035156 174.863281 L 320.046875 185.222656 C 320.21875 185.324219 320.355469 185.515625 320.355469 185.71875 L 320.355469 206.476562 C 320.355469 206.671875 320.253906 206.875 320.085938 206.972656 L 302.035156 217.332031 C 301.875 217.425781 301.664062 217.425781 301.5 217.332031 L 296.863281 214.582031 C 296.722656 214.5 296.535156 214.503906 296.402344 214.582031 C 295.121094 215.304688 294.882812 215.386719 293.683594 215.804688 C 293.386719 215.90625 292.9375 216.066406 293.835938 216.566406 L 299.890625 220.128906 C 300.464844 220.460938 301.109375 220.625 301.769531 220.625 C 302.4375 220.625 303.070312 220.464844 303.648438 220.128906 L 321.695312 209.769531 C 322.863281 209.089844 323.574219 207.828125 323.574219 206.480469 L 323.574219 185.722656 C 323.574219 184.375 322.863281 183.109375 321.695312 182.4375 L 303.648438 172.039062 C 303.082031 171.71875 302.433594 171.582031 301.769531 171.582031 Z M 306.589844 186.402344 C 301.449219 186.402344 298.390625 188.585938 298.390625 192.214844 C 298.390625 196.144531 301.425781 197.230469 306.359375 197.71875 C 312.261719 198.292969 312.722656 199.160156 312.722656 200.316406 C 312.722656 202.328125 311.117188 203.183594 307.320312 203.183594 C 302.546875 203.183594 301.5 201.996094 301.148438 199.625 C 301.105469 199.371094 300.910156 199.164062 300.652344 199.164062 L 298.308594 199.164062 C 298.160156 199.167969 298.035156 199.222656 297.929688 199.324219 C 297.828125 199.429688 297.773438 199.554688 297.769531 199.699219 C 297.769531 202.730469 299.421875 206.3125 307.3125 206.3125 C 313.027344 206.3125 316.320312 204.082031 316.320312 200.160156 C 316.320312 196.28125 313.660156 195.234375 308.117188 194.5 C 302.527344 193.757812 301.988281 193.402344 301.988281 192.09375 C 301.988281 191.011719 302.441406 189.570312 306.585938 189.570312 C 310.289062 189.570312 311.65625 190.367188 312.21875 192.855469 C 312.269531 193.089844 312.476562 193.28125 312.71875 193.28125 L 315.0625 193.28125 C 315.203125 193.28125 315.34375 193.195312 315.445312 193.089844 C 315.542969 192.980469 315.613281 192.855469 315.597656 192.707031 C 315.234375 188.417969 312.367188 186.402344 306.59375 186.402344 Z M 306.589844 186.402344"/></g><g clip-path="url(#b)"><path fill="#FFF" d="M 195.640625 144.363281 C 195.4375 144.363281 195.246094 144.414062 195.066406 144.515625 C 194.6875 144.738281 194.496094 145.070312 194.492188 145.507812 L 194.492188 174.75 C 194.492188 175.039062 194.359375 175.292969 194.109375 175.4375 C 193.839844 175.59375 193.574219 175.59375 193.304688 175.4375 L 188.515625 172.6875 C 188.15625 172.480469 187.773438 172.378906 187.363281 172.378906 C 186.953125 172.378906 186.570312 172.480469 186.214844 172.6875 L 167.09375 183.695312 C 166.378906 184.105469 165.941406 184.898438 165.941406 185.722656 L 165.941406 207.738281 C 165.941406 208.148438 166.042969 208.53125 166.25 208.886719 C 166.453125 209.242188 166.734375 209.519531 167.09375 209.726562 L 186.214844 220.734375 C 186.570312 220.941406 186.953125 221.042969 187.363281 221.042969 C 187.777344 221.042969 188.160156 220.941406 188.515625 220.734375 L 207.636719 209.726562 C 207.996094 209.519531 208.277344 209.242188 208.480469 208.886719 C 208.6875 208.53125 208.789062 208.148438 208.789062 207.738281 L 208.789062 152.847656 C 208.789062 152.011719 208.332031 151.230469 207.601562 150.820312 L 196.21875 144.472656 C 196.039062 144.375 195.839844 144.355469 195.644531 144.359375 Z M 72.621094 171.84375 C 72.257812 171.859375 71.914062 171.921875 71.585938 172.113281 L 52.464844 183.121094 C 52.109375 183.324219 51.828125 183.605469 51.621094 183.960938 C 51.414062 184.316406 51.3125 184.699219 51.316406 185.109375 L 51.351562 214.65625 C 51.351562 215.070312 51.566406 215.449219 51.929688 215.652344 C 52.285156 215.863281 52.722656 215.863281 53.078125 215.652344 L 64.421875 209.152344 C 65.140625 208.726562 65.609375 207.984375 65.609375 207.164062 L 65.609375 193.363281 C 65.609375 192.542969 66.042969 191.785156 66.761719 191.378906 L 71.589844 188.585938 C 71.945312 188.382812 72.328125 188.28125 72.738281 188.28125 C 73.148438 188.28125 73.535156 188.382812 73.890625 188.585938 L 78.714844 191.375 C 79.429688 191.785156 79.863281 192.539062 79.863281 193.363281 L 79.863281 207.164062 C 79.863281 207.984375 80.34375 208.730469 81.054688 209.148438 L 92.398438 215.648438 C 92.753906 215.859375 93.191406 215.859375 93.546875 215.648438 C 93.898438 215.445312 94.121094 215.066406 94.121094 214.65625 L 94.160156 185.105469 C 94.160156 184.695312 94.058594 184.3125 93.855469 183.957031 C 93.648438 183.601562 93.367188 183.324219 93.011719 183.121094 L 73.886719 172.113281 C 73.5625 171.925781 73.21875 171.863281 72.851562 171.847656 L 72.625 171.847656 Z M 244.464844 172.113281 C 244.054688 172.113281 243.671875 172.214844 243.316406 172.417969 L 224.191406 183.429688 C 223.476562 183.839844 223.039062 184.59375 223.039062 185.414062 L 223.039062 207.433594 C 223.039062 208.261719 223.507812 209.011719 224.226562 209.417969 L 243.199219 220.203125 C 243.898438 220.601562 244.753906 220.632812 245.460938 220.242188 L 256.957031 213.859375 C 257.320312 213.65625 257.566406 213.277344 257.570312 212.863281 C 257.570312 212.449219 257.355469 212.078125 256.992188 211.871094 L 237.753906 200.863281 C 237.394531 200.65625 237.140625 200.242188 237.140625 199.828125 L 237.140625 192.945312 C 237.140625 192.53125 237.398438 192.15625 237.753906 191.949219 L 243.734375 188.511719 C 244.089844 188.304688 244.527344 188.304688 244.882812 188.511719 L 250.875 191.949219 C 251.261719 192.171875 251.453125 192.503906 251.449219 192.945312 L 251.449219 198.371094 C 251.449219 198.8125 251.640625 199.144531 252.027344 199.367188 C 252.382812 199.570312 252.816406 199.574219 253.175781 199.367188 L 264.632812 192.714844 C 265.34375 192.300781 265.785156 191.546875 265.785156 190.726562 L 265.785156 185.414062 C 265.785156 185.003906 265.679688 184.621094 265.476562 184.265625 C 265.269531 183.914062 264.988281 183.632812 264.632812 183.425781 L 245.625 172.417969 C 245.269531 172.210938 244.886719 172.109375 244.476562 172.113281 Z M 187.285156 188.550781 C 187.394531 188.550781 187.496094 188.574219 187.589844 188.625 L 194.144531 192.410156 C 194.324219 192.511719 194.453125 192.703125 194.453125 192.90625 L 194.453125 200.476562 C 194.453125 200.679688 194.324219 200.871094 194.144531 200.972656 L 187.589844 204.757812 C 187.414062 204.859375 187.195312 204.859375 187.015625 204.757812 L 180.464844 200.972656 C 180.285156 200.871094 180.15625 200.679688 180.15625 200.476562 L 180.15625 192.910156 C 180.15625 192.703125 180.285156 192.515625 180.464844 192.414062 L 187.015625 188.628906 C 187.105469 188.578125 187.183594 188.554688 187.285156 188.554688 Z M 187.285156 188.550781"/></g><path fill="#83CD29" d="M 130.066406 171.996094 C 129.65625 171.996094 129.273438 172.097656 128.917969 172.304688 L 109.792969 183.273438 C 109.078125 183.6875 108.644531 184.476562 108.644531 185.300781 L 108.644531 207.316406 C 108.644531 207.726562 108.746094 208.109375 108.949219 208.464844 C 109.15625 208.820312 109.4375 209.101562 109.792969 209.304688 L 128.917969 220.3125 C 129.273438 220.519531 129.65625 220.621094 130.066406 220.621094 C 130.476562 220.621094 130.863281 220.519531 131.21875 220.3125 L 150.339844 209.304688 C 150.695312 209.101562 150.976562 208.820312 151.183594 208.464844 C 151.390625 208.109375 151.492188 207.726562 151.492188 207.316406 L 151.492188 185.300781 C 151.492188 184.476562 151.054688 183.6875 150.339844 183.277344 L 131.214844 172.304688 C 130.859375 172.097656 130.476562 171.996094 130.066406 172 Z M 244.425781 191.644531 C 244.351562 191.644531 244.265625 191.644531 244.195312 191.683594 L 240.519531 193.824219 C 240.367188 193.90625 240.292969 194.035156 240.289062 194.207031 L 240.289062 198.410156 C 240.289062 198.570312 240.378906 198.714844 240.519531 198.792969 L 244.195312 200.894531 C 244.335938 200.980469 244.476562 200.980469 244.617188 200.894531 L 248.296875 198.792969 C 248.433594 198.714844 248.527344 198.570312 248.527344 198.410156 L 248.527344 194.207031 C 248.527344 194.046875 248.433594 193.902344 248.296875 193.824219 L 244.617188 191.683594 C 244.550781 191.640625 244.503906 191.644531 244.425781 191.644531 Z M 244.425781 191.644531"/></svg>